<svg x="0px" y="0px" width="100%" viewBox="50 40 329 329">
            <path fill="#000000" opacity="1.000000" stroke="none" d=" M234.817688,268.887390   C225.648071,276.941284 216.954559,277.047150 207.576523,269.500397   C202.834106,265.684021 197.059418,263.128326 191.673431,260.143402   C189.094254,258.713989 187.746109,256.896362 187.784866,253.805557   C187.908112,243.981979 187.883255,234.155624 187.811157,224.331100   C187.790939,221.579300 188.603134,219.676788 191.161423,218.246078   C199.878601,213.370972 208.511230,208.341629 217.107468,203.255112   C219.652756,201.749039 221.793427,201.544098 224.477325,203.159241   C232.890427,208.222153 241.420517,213.095810 249.993271,217.885345   C252.784363,219.444717 254.014023,221.435379 253.974838,224.668091   C253.859818,234.158279 253.864609,243.653549 254.058670,253.141998   C254.133743,256.813995 252.670700,258.925415 249.452271,260.559174   C244.561722,263.041687 239.893204,265.961578 234.817688,268.887390  z" />
            <path fill="#000000" opacity="1.000000" stroke="none" d=" M229.754730,311.836609   C223.841888,316.624237 218.586060,316.678040 212.455612,312.280365   C206.131241,307.743591 199.043350,304.249390 192.187057,300.485718   C189.083542,298.782074 187.606049,296.638184 187.710007,292.946381   C187.944260,284.627838 187.777649,276.298462 187.827454,267.973816   C187.836075,266.533813 187.423767,264.960266 188.692032,263.649933   C190.873062,263.135498 192.410309,264.661163 194.075745,265.605743   C201.602921,269.874847 209.127975,274.152008 216.553802,278.593445   C219.416443,280.305603 221.766571,280.414795 224.788864,278.646393   C243.750458,267.551697 262.832886,256.663452 281.876648,245.709259   C283.573944,244.732971 285.170593,243.479019 287.581238,243.474579   C288.897034,248.138077 288.076538,252.772751 288.207611,257.330688   C288.355927,262.487854 288.012238,267.665985 288.314087,272.809662   C288.541534,276.685730 287.005920,278.848816 283.707367,280.723633   C265.765778,290.921143 247.938110,301.319061 229.754730,311.836609  z" />
            <path fill="#000000" opacity="1.000000" stroke="none" d=" M195.739594,175.642487   C203.117538,171.382172 210.230820,167.386261 217.225906,163.193176   C219.844147,161.623734 221.933228,161.790802 224.570923,163.329300   C244.413361,174.902863 264.322998,186.362137 284.280457,197.736450   C287.062683,199.322144 288.354187,201.177170 288.299713,204.451660   C288.136322,214.273682 288.237396,224.100082 288.229187,233.924774   C288.227661,235.761292 288.391968,237.753860 286.528351,238.854004   C277.251984,244.330063 267.937744,249.741959 258.843475,255.055695   C256.389893,253.014633 257.013397,250.878204 257.002319,248.968689   C256.952911,240.476624 256.806396,231.977142 257.102356,223.494553   C257.242737,219.470795 255.856918,217.111618 252.371918,215.133469   C233.408432,204.369461 214.556503,193.408844 195.676010,182.498856   C194.135147,181.608490 192.248215,181.136627 191.401031,179.256424   C191.917297,177.123840 194.078384,176.946121 195.739594,175.642487  z" />
            <path fill="#000000" opacity="1.000000" stroke="none" d=" M175.376740,290.673187   C169.155594,287.073059 163.290176,283.585999 157.310913,280.306549   C154.666077,278.855927 153.600449,276.972229 153.612976,273.920715   C153.708664,250.622635 153.699677,227.323837 153.620590,204.025635   C153.611053,201.217407 154.475220,199.364532 156.968018,197.958771   C165.662369,193.055756 174.275467,188.008606 182.915756,183.009857   C184.707977,181.972977 186.430969,181.294907 188.509933,182.513123   C197.119843,187.558304 205.784073,192.510773 214.408951,197.530624   C214.930923,197.834412 215.284821,198.426971 215.921036,199.101608   C212.649658,202.596924 208.321320,204.062881 204.602829,206.395187   C199.392593,209.663132 194.060974,212.768112 188.602921,215.598892   C185.342636,217.289810 184.255585,219.514252 184.278992,223.131088   C184.419998,244.930878 184.353165,266.732086 184.328735,288.532776   C184.326538,290.490753 184.625748,292.506256 183.728958,294.543579   C180.384277,294.613007 178.351715,292.019287 175.376740,290.673187  z" />
            <path fill="#000000" opacity="1.000000" stroke="none" d=" M301.584442,171.535980   C304.906982,166.744003 308.044312,162.252808 311.181641,157.761597   C311.004730,157.485550 310.827789,157.209503 310.650879,156.933456   C306.161255,159.415970 301.517120,161.661560 297.231323,164.456635   C293.857025,166.657242 291.738373,165.978668 289.184845,163.157578   C282.933807,156.251541 282.832581,156.366928 288.074249,148.759552   C294.093811,140.023239 300.083435,131.266296 306.067322,122.545654   C309.441895,123.727768 310.714874,126.466415 312.766449,128.318390   C314.905914,130.249725 314.768707,132.112686 312.952789,134.349304   C309.192871,138.980331 305.655243,143.791824 302.603271,149.333832   C307.703339,146.528900 313.006195,144.031372 317.849304,140.836807   C323.219086,137.294830 324.675323,142.263962 327.434387,144.563934   C330.221497,146.887268 330.415466,149.187469 328.091339,152.207794   C324.552948,156.806137 321.447845,161.737885 317.428833,167.591034   C323.456696,164.938004 327.840088,161.877060 332.053986,158.733231   C335.985931,155.799744 338.814056,156.004242 341.501556,160.057236   C342.577698,161.680176 344.504150,162.710449 344.978149,165.149506   C342.171753,167.902008 338.390076,169.281845 334.969330,171.189270   C327.851044,175.158432 320.580231,178.859940 313.537292,182.955566   C310.326416,184.822754 308.061432,184.558731 305.874847,181.595810   C304.596069,179.863052 303.053345,178.319733 301.578918,176.738174   C300.080261,175.130630 300.044952,173.522415 301.584442,171.535980  z" />
            <path fill="#000000" opacity="1.000000" stroke="none" d=" M363.482269,231.996262   C363.062134,238.226013 363.740540,244.066879 362.816223,249.859436   C362.083801,254.449661 360.927979,258.944855 356.071991,260.700531   C351.082794,262.504395 346.566833,261.240356 343.202057,256.769653   C340.473541,258.461243 338.516296,260.865295 335.343750,261.291229   C327.505829,262.343536 322.555084,257.857269 322.321045,248.787888   C322.171204,242.981232 322.702362,237.159393 322.826294,231.342194   C322.884094,228.629486 323.984589,227.491684 326.796326,227.608078   C337.928192,228.068939 349.065826,228.391479 360.201141,228.769028   C362.036346,228.831253 363.517090,229.330002 363.482269,231.996262  M332.515137,246.805740   C333.449921,248.866028 335.116943,249.506775 336.880493,248.260178   C339.025665,246.743805 339.085144,244.128464 338.428680,241.966919   C337.620880,239.307007 335.203003,239.899246 333.135712,240.206482   C331.893738,242.118073 332.459625,244.119217 332.515137,246.805740  M353.200439,244.058289   C353.729614,241.914246 353.323029,240.434525 350.712708,240.381805   C348.446899,240.336060 347.292206,241.352921 347.364380,243.656601   C347.425140,245.595627 346.879333,247.996490 349.571075,248.523300   C352.374634,249.072006 352.720612,246.807251 353.200439,244.058289  z" />
            <path fill="#000000" opacity="1.000000" stroke="none" d=" M217.881088,135.097961   C204.325470,141.901505 190.902496,137.389633 186.687576,124.918007   C183.243362,114.726845 187.108078,104.301155 196.044250,99.676918   C205.656433,94.702858 216.809692,96.987793 222.856995,105.169945   C228.997635,113.478378 227.966965,125.605553 220.476791,132.964432   C219.768555,133.660278 218.963989,134.258072 217.881088,135.097961  M209.391098,108.850357   C207.918167,108.684280 206.404480,108.216713 204.979996,108.409203   C200.866409,108.965073 198.474228,111.401093 197.893845,115.588142   C197.270554,120.084724 198.348480,123.904984 202.411545,126.319511   C205.915924,128.402039 209.256088,127.284256 212.054886,124.856026   C216.359299,121.121552 215.345566,113.861244 209.391098,108.850357  z" />
            <path fill="#000000" opacity="1.000000" stroke="none" d=" M134.948196,175.944336   C127.157890,168.181870 119.703987,160.568054 112.026054,153.187286   C109.323723,150.589554 109.316872,148.775696 112.094772,146.311859   C115.824356,143.003937 119.083961,139.155975 122.884743,135.941116   C127.279106,132.224197 132.253082,130.055420 137.998642,133.238007   C143.552231,136.314255 146.209930,140.916077 144.873718,147.302063   C144.320572,149.945633 145.823410,150.411270 147.743286,150.923920   C151.727051,151.987717 155.683441,153.153992 159.660065,154.280670   C158.139175,158.835144 152.978058,164.092911 150.306107,163.543350   C145.943008,162.645996 141.674881,161.286957 136.413101,159.865005   C139.025650,162.679642 140.972534,164.848816 143.000610,166.939194   C144.601349,168.589096 146.348129,170.462051 143.634384,172.210739   C141.047913,173.877411 140.215378,179.669083 134.948196,175.944336  M131.297928,144.210693   C128.215775,144.325348 126.761475,146.336746 125.477028,148.973953   C127.578926,150.726944 128.804291,154.523117 132.180618,150.977020   C134.217941,148.837265 136.091705,146.433701 131.297928,144.210693  z" />
            <path fill="#000000" opacity="1.000000" stroke="none" d=" M106.540176,208.465805   C100.889786,203.293259 95.578110,198.269180 90.068192,193.472824   C87.721207,191.429779 87.101990,189.565048 88.375793,186.574738   C92.676903,176.477707 91.734215,177.607162 101.149307,178.457932   C110.392181,179.293137 119.707695,179.343872 128.993561,179.676682   C134.747955,179.882935 134.991577,180.320984 132.919556,185.847092   C131.638229,189.264450 130.408005,191.485840 125.779488,191.733597   C121.117531,191.983170 121.608353,197.817047 119.618851,201.058960   C118.420624,203.011444 119.228180,204.507980 120.972137,205.686417   C123.381943,207.314819 123.397354,209.385605 122.099884,211.738495   C120.914536,213.888046 120.583687,216.497086 118.020691,218.852264   C114.304504,215.492447 110.551582,212.099442 106.540176,208.465805  M107.017570,193.482971   C108.396370,194.206528 109.128983,196.172043 111.223816,195.683578   C112.056953,194.119385 113.372269,192.706787 112.358444,190.406342   C109.709274,190.406342 106.995262,190.406342 103.847328,190.406342   C104.930916,191.473740 105.741989,192.272690 107.017570,193.482971  z" />
            <path fill="#000000" opacity="1.000000" stroke="none" d=" M78.343201,242.587006   C78.308060,230.940979 83.625748,223.685547 93.019547,222.622055   C92.948402,227.708389 95.774307,232.981842 90.703110,237.438248   C89.328705,238.646027 89.052429,240.716721 89.479324,242.598984   C90.258766,246.035690 92.419830,248.195541 95.931679,248.656784   C100.182884,249.215118 104.562202,249.271225 106.980858,244.931671   C108.705032,241.838165 108.488045,238.517990 105.727119,235.767639   C101.778580,231.834152 104.491241,226.973373 103.531120,222.581741   C111.723404,222.265488 118.704933,229.626343 119.305611,238.772781   C120.115433,251.103760 112.995827,260.166870 101.652603,261.244720   C88.584114,262.486511 79.864082,255.638168 78.343201,242.587006  z" />
            <path fill="#000000" opacity="1.000000" stroke="none" d=" M253.075394,114.087372   C255.866364,116.426048 258.474701,118.478539 261.067780,120.550102   C266.090729,124.562836 267.586975,128.962708 265.682251,134.067200   C263.807098,139.092438 258.941895,142.287033 253.187653,142.271362   C244.487045,142.247665 236.421982,136.391846 235.281052,129.269897   C234.603027,125.037384 235.673737,123.895393 239.783066,125.009033   C243.162842,125.924942 247.127594,125.940666 248.630310,130.341217   C249.172974,131.930328 251.127686,132.185379 252.486237,131.246964   C254.276138,130.010590 253.227020,128.480698 252.092010,127.501404   C250.088684,125.772903 247.894547,124.262161 245.751984,122.699051   C239.701660,118.285042 237.997696,113.208282 240.570694,107.173759   C242.827835,101.880058 248.374191,99.266930 255.154434,100.489746   C262.020691,101.728065 268.009796,104.286530 269.956848,111.894287   C271.102478,116.370583 269.568604,117.928223 265.149048,116.749672   C261.896088,115.882210 258.130463,115.818794 256.576599,111.775566   C256.167206,110.710274 254.867828,110.101753 253.608307,110.811775   C252.379990,111.504211 252.265015,112.601631 253.075394,114.087372  z" />
            <path fill="#000000" opacity="1.000000" stroke="none" d=" M321.699890,195.579163   C331.012604,192.798584 339.973022,190.220917 348.838440,187.349899   C352.325134,186.220764 354.091553,187.022202 355.053070,190.583771   C356.570374,196.203827 358.342682,201.756607 360.078705,207.315475   C361.180969,210.845001 359.372833,211.966461 356.300354,212.772095   C353.296722,213.559647 351.106445,213.882980 350.479553,209.943649   C350.169250,207.993637 349.175629,206.161453 348.742218,204.219925   C347.978180,200.797150 346.151825,200.343201 343.130249,202.095215   C342.704193,204.916672 344.067383,207.512222 344.849396,210.133896   C345.836578,213.443359 344.345886,214.609955 341.515533,215.496170   C338.699219,216.377991 336.623840,216.388779 335.817657,212.983109   C335.434631,211.365204 334.956482,209.765228 334.433533,208.186249   C333.811401,206.307693 332.902008,204.774750 330.470551,205.612137   C328.176941,206.402039 328.065948,208.172668 328.554657,210.084717   C329.089691,212.177826 329.643127,214.290161 330.463593,216.280762   C331.678497,219.228470 330.541809,220.636536 327.720154,221.307449   C325.217407,221.902527 322.431152,223.629654 321.206207,219.597672   C319.271301,213.228775 317.213562,206.888489 315.559082,200.445877   C314.249359,195.345551 319.281555,197.152573 321.699890,195.579163  z" />
            <path fill="#000000" opacity="1.000000" stroke="none" d=" M158.187592,140.733246   C154.217117,132.857391 150.421753,125.310966 146.836975,118.183228   C147.270859,117.345680 147.309097,117.144791 147.429642,117.057304   C156.185974,110.701889 156.471466,110.764450 161.392395,120.332809   C163.601776,124.628792 165.783096,128.939240 167.967743,133.247894   C171.052567,139.331818 171.209869,139.622543 177.032166,136.376282   C181.368073,133.958755 183.285202,135.442841 184.913864,139.401413   C185.889893,141.773697 185.371735,143.115356 183.150528,144.201157   C178.063309,146.687973 172.998199,149.223846 167.981445,151.849380   C165.469391,153.164078 163.975937,152.432922 162.839401,149.999176   C161.430222,146.981567 159.862152,144.038132 158.187592,140.733246  z" />
            <path fill="#000000" opacity="1.000000" stroke="none" d=" M256.127075,347.174591   C252.478668,346.029388 253.338379,342.262665 251.370285,340.337158   C250.630859,340.425049 250.803497,340.965576 250.790344,341.408875   C250.719482,343.796417 251.600586,347.002808 247.822006,347.056061   C243.876114,347.111664 244.956131,343.702820 244.860687,341.435150   C244.706863,337.780701 244.793121,334.113892 244.855957,330.453644   C244.884995,328.761902 245.014221,327.012299 247.307922,326.783630   C249.379242,326.577148 251.204086,326.660522 252.341248,328.951965   C253.785645,331.862518 254.330963,335.231903 256.931641,338.402649   C258.280579,335.171997 259.520966,332.507385 260.507660,329.751953   C261.496460,326.990784 263.449615,326.393890 266.029999,326.805084   C268.697296,327.230072 268.211029,329.359711 268.246277,331.096649   C268.327362,335.089783 268.312134,339.085297 268.299896,343.079712   C268.293427,345.187531 268.108673,347.238007 265.199158,347.119110   C262.441803,347.006409 262.788452,344.875183 262.691895,343.100433   C262.620087,341.780701 262.677734,340.453888 262.677734,338.808899   C259.926117,341.375183 261.350159,346.618164 256.127075,347.174591  z" />
            <path fill="#000000" opacity="1.000000" stroke="none" d=" M285.778687,341.810120   C285.788849,337.841125 285.755646,334.349396 285.814728,330.859253   C285.842133,329.241882 285.590240,327.340240 287.846802,326.884430   C289.723358,326.505402 291.504120,326.659424 292.733337,328.447540   C294.394226,330.863556 296.069305,333.269806 298.408844,336.648651   C298.578796,333.417175 298.677307,331.336853 298.800720,329.257996   C298.914825,327.336792 300.095337,326.755646 301.842499,326.821838   C303.515015,326.885162 304.232361,327.825684 304.242218,329.370758   C304.274017,334.356812 304.285461,339.343201 304.261475,344.329254   C304.255737,345.522003 304.023163,346.742767 302.614288,347.065552   C300.915588,347.454712 299.222900,347.350739 298.091492,345.809845   C296.237061,343.284241 294.489288,340.680328 292.008759,337.123108   C292.008759,339.576935 292.084900,340.965149 291.990967,342.341797   C291.848694,344.426575 292.279816,347.033417 289.081635,347.170288   C285.529358,347.322296 285.848846,344.618073 285.778687,341.810120  z" />
            <path fill="#000000" opacity="1.000000" stroke="none" d=" M205.706116,341.800171   C203.486191,333.883057 206.150452,328.119629 212.288223,326.820831   C219.349396,325.326660 224.723419,328.983337 225.584427,335.868073   C226.155518,340.434540 223.576736,344.797455 219.248978,346.586700   C214.233231,348.660370 209.820129,347.203888 205.706116,341.800171  M218.103394,333.293915   C215.735474,331.655426 213.394302,331.528229 211.539169,333.924042   C209.945297,335.982452 210.000977,338.242493 211.775391,340.285004   C213.318314,342.061066 215.339447,342.251190 217.167252,341.141663   C220.135834,339.339539 220.265320,336.705994 218.103394,333.293915  z" />
            <path fill="#000000" opacity="1.000000" stroke="none" d=" M131.252502,327.041016   C137.165390,329.414398 139.941376,333.637115 139.143860,338.547607   C138.248734,344.059143 134.515213,347.030273 128.141663,347.303131   C120.734352,347.620239 120.682343,347.571106 120.660271,340.077576   C120.654396,338.083130 120.654137,336.088684 120.657776,334.094238   C120.671661,326.481110 120.672791,326.476471 128.362823,326.700562   C129.190903,326.724701 130.016296,326.841583 131.252502,327.041016  M126.316101,338.292084   C126.226326,340.678406 126.990021,342.284027 129.746841,341.573364   C132.571976,340.845123 133.092743,338.553467 132.767944,336.123474   C132.294800,332.583618 130.023758,331.721161 126.308922,332.492737   C126.308922,334.269836 126.308922,335.881866 126.316101,338.292084  z" />
            <path fill="#000000" opacity="1.000000" stroke="none" d=" M243.199036,334.701904   C242.544769,337.156006 241.329117,338.838074 239.300507,339.401642   C235.920181,340.340759 232.417908,340.755096 232.902618,345.718903   C233.029236,347.015411 231.360397,347.206329 230.139023,347.152496   C228.770386,347.092163 227.858017,346.368286 227.838821,345.020844   C227.762939,339.692749 227.771957,334.363129 227.793381,329.034241   C227.796783,328.187347 228.205109,327.501892 229.019424,327.034180   C234.553635,323.855591 242.694168,327.993835 243.199036,334.701904  z" />
            <path fill="#000000" opacity="1.000000" stroke="none" d=" M174.320114,331.074127   C172.757217,335.515350 171.288895,339.560730 169.898468,343.632690   C169.143875,345.842651 168.096741,347.366486 165.371689,347.352936   C162.819138,347.340210 161.418793,346.347076 160.614273,343.958405   C158.778809,338.508789 156.791489,333.110321 154.677460,327.160858   C164.759232,325.806519 161.027435,335.490051 165.578995,338.461517   C166.667221,335.420044 167.815903,332.235168 168.945541,329.043549   C169.707077,326.892059 171.405151,326.426025 173.343246,326.817749   C175.999939,327.354736 174.933350,329.148651 174.320114,331.074127  z" />
            <path fill="#000000" opacity="1.000000" stroke="none" d=" M140.943146,329.304932   C142.905106,326.927338 150.871399,325.755310 152.842743,327.107605   C153.767731,327.742096 154.024033,328.654968 153.798264,329.714233   C153.540802,330.922180 152.572815,331.120605 151.555908,331.277771   C149.900726,331.533508 147.818497,330.841278 146.996826,332.963715   C147.872208,336.333893 153.483673,332.714813 152.986237,337.362915   C152.618561,340.798218 147.638855,337.798096 147.013550,341.277618   C148.125259,343.531128 150.260712,342.329773 151.879990,342.745758   C152.947403,343.019958 153.770493,343.444458 153.878601,344.601501   C154.004440,345.948517 153.325195,347.011993 152.007431,347.077393   C149.032944,347.225037 146.030136,347.318146 143.069977,347.066864   C140.900696,346.882721 140.854294,344.902985 140.847870,343.218262   C140.830811,338.736481 140.867569,334.254486 140.943146,329.304932  z" />
            <path fill="#000000" opacity="1.000000" stroke="none" d=" M176.707932,333.100708   C177.045227,330.626007 175.772644,327.683899 178.588821,327.039612   C181.930908,326.275024 185.517151,326.042206 188.874680,327.364563   C189.648193,327.669220 189.699585,328.739380 189.551376,329.603699   C189.343750,330.814514 188.439377,331.122375 187.393631,331.279846   C185.721436,331.531647 183.692825,330.838043 182.622162,332.753387   C183.412766,336.426392 189.023163,332.773254 188.811523,337.054596   C188.622360,340.881104 183.828049,337.947205 182.629593,340.724670   C182.976028,343.289948 185.028854,342.495941 186.516724,342.654327   C188.088898,342.821716 189.673569,342.915283 189.564896,345.040863   C189.460236,347.087799 187.870987,347.239777 186.309235,347.275604   C184.810089,347.310028 183.297806,347.180115 181.812531,347.331207   C177.838928,347.735443 176.393448,345.914734 176.664169,342.080597   C176.863220,339.261627 176.703827,336.417328 176.707932,333.100708  z" />
            <path fill="#000000" opacity="1.000000" stroke="none" d=" M281.012512,331.285797   C279.201569,331.485413 277.558838,331.020782 276.676056,332.666870   C276.828674,335.035522 278.640778,334.543762 280.014526,334.686371   C281.401398,334.830353 282.754761,334.985748 282.889252,336.751526   C283.046295,338.813080 281.627533,339.158112 280.001617,339.308777   C278.748657,339.424835 277.235992,339.085754 276.656769,340.940002   C277.280548,343.514984 279.517212,342.415344 281.108337,342.678955   C282.356140,342.885681 283.453003,343.146973 283.524414,344.626129   C283.602020,346.233459 282.690033,347.129761 281.127441,347.178650   C278.641907,347.256531 276.151642,347.258575 273.665100,347.207458   C271.599335,347.165009 270.759705,345.903442 270.750214,343.959503   C270.735657,340.972229 270.722351,337.984955 270.714691,334.997681   C270.693115,326.593201 272.583008,325.095825 281.080109,326.684265   C282.303162,326.912903 283.416290,327.182953 283.598572,328.599579   C283.802887,330.187958 283.054443,331.122925 281.012512,331.285797  z" />
            <path fill="#000000" opacity="1.000000" stroke="none" d=" M317.096985,344.614258   C316.484467,347.185181 314.910980,347.449829 313.139191,347.061249   C311.278229,346.653107 311.114868,345.047119 311.061646,343.534851   C310.985657,341.376434 311.066284,339.212830 311.010010,337.053284   C310.942413,334.457733 311.529327,331.492950 307.532349,331.096344   C306.426727,330.986664 305.962524,329.984833 306.005920,328.863800   C306.063019,327.388062 307.049622,326.816345 308.312958,326.796082   C312.133270,326.734680 315.955414,326.740021 319.776123,326.782898   C320.799286,326.794373 321.877930,327.127716 321.963593,328.346069   C322.016449,329.098145 321.739319,330.474915 321.365509,330.565979   C314.852936,332.152283 317.901611,337.393219 317.241852,341.176178   C317.072479,342.147278 317.178101,343.166351 317.096985,344.614258  z" />
            <path fill="#000000" opacity="1.000000" stroke="none" d=" M197.969788,333.025574   C197.962799,334.961853 198.049240,336.458618 197.918228,337.936096   C197.678101,340.644043 197.678253,343.022705 201.473328,342.793884   C202.726715,342.718292 203.816574,343.279907 203.866913,344.731384   C203.923294,346.357635 202.859253,346.911011 201.381287,347.228271   C193.954605,348.822510 191.836014,347.172180 191.809265,339.604553   C191.799332,336.793579 191.787231,333.981506 191.855316,331.171814   C191.902267,329.233093 191.561707,326.969391 194.533325,326.791718   C197.707184,326.601929 197.808701,328.862152 197.934189,331.089600   C197.962067,331.584534 197.955734,332.081421 197.969788,333.025574  z" />
        </svg>